<?xml version="1.0" encoding="UTF-8" standalone="no"?>
<!DOCTYPE svg PUBLIC "-//W3C//DTD SVG 1.1//EN"
 "http://www.w3.org/Graphics/SVG/1.1/DTD/svg11.dtd">
<!-- Generated by graphviz version 3.0.0 (20220226.1711)
 -->
<!-- Title: dependencies Pages: 1 -->
<svg width="870pt" height="174pt"
 viewBox="0.00 0.00 870.00 173.80" xmlns="http://www.w3.org/2000/svg" xmlns:xlink="http://www.w3.org/1999/xlink">
<g id="graph0" class="graph" transform="scale(1 1) rotate(0) translate(4 169.8)">
<title>dependencies</title>
<polygon fill="white" stroke="transparent" points="-4,4 -4,-169.8 866,-169.8 866,4 -4,4"/>
<text text-anchor="middle" x="431" y="-8.2" font-family="sans-serif" font-size="14.00">dependencies</text>
<g id="clust1" class="cluster">
<title>cluster_AppModule</title>
<polygon fill="none" stroke="black" stroke-dasharray="1,5" points="8,-32.8 8,-157.8 854,-157.8 854,-32.8 8,-32.8"/>
</g>
<g id="clust6" class="cluster">
<title>cluster_AppModule_providers</title>
<polygon fill="none" stroke="black" points="716,-40.8 716,-92.8 846,-92.8 846,-40.8 716,-40.8"/>
</g>
<g id="clust3" class="cluster">
<title>cluster_AppModule_imports</title>
<polygon fill="none" stroke="black" points="16,-40.8 16,-92.8 708,-92.8 708,-40.8 16,-40.8"/>
</g>
<!-- AuthModule -->
<g id="node1" class="node">
<title>AuthModule</title>
<polygon fill="#8dd3c7" stroke="black" points="699.55,-84.8 696.55,-88.8 675.55,-88.8 672.55,-84.8 612.45,-84.8 612.45,-48.8 699.55,-48.8 699.55,-84.8"/>
<text text-anchor="middle" x="656" y="-62.6" font-family="Times,serif" font-size="14.00">AuthModule</text>
</g>
<!-- AppModule -->
<g id="node7" class="node">
<title>AppModule</title>
<polygon fill="#8dd3c7" stroke="black" points="465.66,-149.8 462.66,-153.8 441.66,-153.8 438.66,-149.8 382.34,-149.8 382.34,-113.8 465.66,-113.8 465.66,-149.8"/>
<text text-anchor="middle" x="424" y="-127.6" font-family="Times,serif" font-size="14.00">AppModule</text>
</g>
<!-- AuthModule&#45;&gt;AppModule -->
<g id="edge1" class="edge">
<title>AuthModule&#45;&gt;AppModule</title>
<path fill="none" stroke="black" d="M656,-84.91C656,-104.14 656,-131.8 656,-131.8 656,-131.8 475.74,-131.8 475.74,-131.8"/>
<polygon fill="black" stroke="black" points="475.74,-128.3 465.74,-131.8 475.74,-135.3 475.74,-128.3"/>
</g>
<!-- GenerosModule -->
<g id="node2" class="node">
<title>GenerosModule</title>
<polygon fill="#8dd3c7" stroke="black" points="594.2,-84.8 591.2,-88.8 570.2,-88.8 567.2,-84.8 487.8,-84.8 487.8,-48.8 594.2,-48.8 594.2,-84.8"/>
<text text-anchor="middle" x="541" y="-62.6" font-family="Times,serif" font-size="14.00">GenerosModule</text>
</g>
<!-- GenerosModule&#45;&gt;AppModule -->
<g id="edge2" class="edge">
<title>GenerosModule&#45;&gt;AppModule</title>
<path fill="none" stroke="black" d="M541,-84.83C541,-101.2 541,-122.8 541,-122.8 541,-122.8 475.91,-122.8 475.91,-122.8"/>
<polygon fill="black" stroke="black" points="475.91,-119.3 465.91,-122.8 475.91,-126.3 475.91,-119.3"/>
</g>
<!-- JogosModule -->
<g id="node3" class="node">
<title>JogosModule</title>
<polygon fill="#8dd3c7" stroke="black" points="469.95,-84.8 466.95,-88.8 445.95,-88.8 442.95,-84.8 378.05,-84.8 378.05,-48.8 469.95,-48.8 469.95,-84.8"/>
<text text-anchor="middle" x="424" y="-62.6" font-family="Times,serif" font-size="14.00">JogosModule</text>
</g>
<!-- JogosModule&#45;&gt;AppModule -->
<g id="edge3" class="edge">
<title>JogosModule&#45;&gt;AppModule</title>
<path fill="none" stroke="black" d="M424,-84.91C424,-84.91 424,-103.79 424,-103.79"/>
<polygon fill="black" stroke="black" points="420.5,-103.79 424,-113.79 427.5,-103.79 420.5,-103.79"/>
</g>
<!-- PerfisModule -->
<g id="node4" class="node">
<title>PerfisModule</title>
<polygon fill="#8dd3c7" stroke="black" points="360.21,-84.8 357.21,-88.8 336.21,-88.8 333.21,-84.8 267.79,-84.8 267.79,-48.8 360.21,-48.8 360.21,-84.8"/>
<text text-anchor="middle" x="314" y="-62.6" font-family="Times,serif" font-size="14.00">PerfisModule</text>
</g>
<!-- PerfisModule&#45;&gt;AppModule -->
<g id="edge4" class="edge">
<title>PerfisModule&#45;&gt;AppModule</title>
<path fill="none" stroke="black" d="M314,-84.83C314,-101.2 314,-122.8 314,-122.8 314,-122.8 372.1,-122.8 372.1,-122.8"/>
<polygon fill="black" stroke="black" points="372.1,-126.3 382.1,-122.8 372.1,-119.3 372.1,-126.3"/>
</g>
<!-- PrismaModule -->
<g id="node5" class="node">
<title>PrismaModule</title>
<polygon fill="#8dd3c7" stroke="black" points="250.44,-84.8 247.44,-88.8 226.44,-88.8 223.44,-84.8 151.56,-84.8 151.56,-48.8 250.44,-48.8 250.44,-84.8"/>
<text text-anchor="middle" x="201" y="-62.6" font-family="Times,serif" font-size="14.00">PrismaModule</text>
</g>
<!-- PrismaModule&#45;&gt;AppModule -->
<g id="edge5" class="edge">
<title>PrismaModule&#45;&gt;AppModule</title>
<path fill="none" stroke="black" d="M201,-84.91C201,-104.14 201,-131.8 201,-131.8 201,-131.8 372.32,-131.8 372.32,-131.8"/>
<polygon fill="black" stroke="black" points="372.32,-135.3 382.32,-131.8 372.32,-128.3 372.32,-135.3"/>
</g>
<!-- UsuariosModule -->
<g id="node6" class="node">
<title>UsuariosModule</title>
<polygon fill="#8dd3c7" stroke="black" points="133.82,-84.8 130.82,-88.8 109.82,-88.8 106.82,-84.8 24.18,-84.8 24.18,-48.8 133.82,-48.8 133.82,-84.8"/>
<text text-anchor="middle" x="79" y="-62.6" font-family="Times,serif" font-size="14.00">UsuariosModule</text>
</g>
<!-- UsuariosModule&#45;&gt;AppModule -->
<g id="edge6" class="edge">
<title>UsuariosModule&#45;&gt;AppModule</title>
<path fill="none" stroke="black" d="M79,-85.09C79,-107.01 79,-140.8 79,-140.8 79,-140.8 372.04,-140.8 372.04,-140.8"/>
<polygon fill="black" stroke="black" points="372.04,-144.3 382.04,-140.8 372.04,-137.3 372.04,-144.3"/>
</g>
<!-- AppService -->
<g id="node8" class="node">
<title>AppService</title>
<ellipse fill="#fdb462" stroke="black" cx="781" cy="-66.8" rx="56.75" ry="18"/>
<text text-anchor="middle" x="781" y="-62.6" font-family="Times,serif" font-size="14.00">AppService</text>
</g>
<!-- AppService&#45;&gt;AppModule -->
<g id="edge7" class="edge">
<title>AppService&#45;&gt;AppModule</title>
<path fill="none" stroke="black" d="M781,-85.09C781,-107.01 781,-140.8 781,-140.8 781,-140.8 476,-140.8 476,-140.8"/>
<polygon fill="black" stroke="black" points="476,-137.3 466,-140.8 476,-144.3 476,-137.3"/>
</g>
</g>
</svg>
