<?xml version="1.0" encoding="UTF-8" standalone="no"?>
<!DOCTYPE svg PUBLIC "-//W3C//DTD SVG 1.1//EN"
 "http://www.w3.org/Graphics/SVG/1.1/DTD/svg11.dtd">
<!-- Generated by graphviz version 3.0.0 (20220226.1711)
 -->
<!-- Title: dependencies Pages: 1 -->
<svg width="326pt" height="174pt"
 viewBox="0.00 0.00 326.00 173.80" xmlns="http://www.w3.org/2000/svg" xmlns:xlink="http://www.w3.org/1999/xlink">
<g id="graph0" class="graph" transform="scale(1 1) rotate(0) translate(4 169.8)">
<title>dependencies</title>
<polygon fill="white" stroke="transparent" points="-4,4 -4,-169.8 322,-169.8 322,4 -4,4"/>
<text text-anchor="middle" x="159" y="-8.2" font-family="sans-serif" font-size="14.00">dependencies</text>
<g id="clust1" class="cluster">
<title>cluster_UsuariosModule</title>
<polygon fill="none" stroke="black" stroke-dasharray="1,5" points="8,-32.8 8,-157.8 310,-157.8 310,-32.8 8,-32.8"/>
</g>
<g id="clust6" class="cluster">
<title>cluster_UsuariosModule_providers</title>
<polygon fill="none" stroke="black" points="138,-40.8 138,-92.8 302,-92.8 302,-40.8 138,-40.8"/>
</g>
<g id="clust3" class="cluster">
<title>cluster_UsuariosModule_imports</title>
<polygon fill="none" stroke="black" points="16,-40.8 16,-92.8 130,-92.8 130,-40.8 16,-40.8"/>
</g>
<!-- PrismaModule -->
<g id="node1" class="node">
<title>PrismaModule</title>
<polygon fill="#8dd3c7" stroke="black" points="122.44,-84.8 119.44,-88.8 98.44,-88.8 95.44,-84.8 23.56,-84.8 23.56,-48.8 122.44,-48.8 122.44,-84.8"/>
<text text-anchor="middle" x="73" y="-62.6" font-family="Times,serif" font-size="14.00">PrismaModule</text>
</g>
<!-- UsuariosModule -->
<g id="node2" class="node">
<title>UsuariosModule</title>
<polygon fill="#8dd3c7" stroke="black" points="200.82,-149.8 197.82,-153.8 176.82,-153.8 173.82,-149.8 91.18,-149.8 91.18,-113.8 200.82,-113.8 200.82,-149.8"/>
<text text-anchor="middle" x="146" y="-127.6" font-family="Times,serif" font-size="14.00">UsuariosModule</text>
</g>
<!-- PrismaModule&#45;&gt;UsuariosModule -->
<g id="edge1" class="edge">
<title>PrismaModule&#45;&gt;UsuariosModule</title>
<path fill="none" stroke="black" d="M106.78,-84.91C106.78,-84.91 106.78,-103.79 106.78,-103.79"/>
<polygon fill="black" stroke="black" points="103.28,-103.79 106.78,-113.79 110.28,-103.79 103.28,-103.79"/>
</g>
<!-- UsuariosService -->
<g id="node3" class="node">
<title>UsuariosService</title>
<ellipse fill="#fdb462" stroke="black" cx="220" cy="-66.8" rx="74.15" ry="18"/>
<text text-anchor="middle" x="220" y="-62.6" font-family="Times,serif" font-size="14.00">UsuariosService</text>
</g>
<!-- UsuariosService&#45;&gt;UsuariosModule -->
<g id="edge2" class="edge">
<title>UsuariosService&#45;&gt;UsuariosModule</title>
<path fill="none" stroke="black" d="M173.17,-80.9C173.17,-80.9 173.17,-103.52 173.17,-103.52"/>
<polygon fill="black" stroke="black" points="169.67,-103.52 173.17,-113.52 176.67,-103.52 169.67,-103.52"/>
</g>
</g>
</svg>
