<?xml version="1.0" encoding="UTF-8" standalone="no"?>
<!DOCTYPE svg PUBLIC "-//W3C//DTD SVG 1.1//EN"
 "http://www.w3.org/Graphics/SVG/1.1/DTD/svg11.dtd">
<!-- Generated by graphviz version 3.0.0 (20220226.1711)
 -->
<!-- Title: dependencies Pages: 1 -->
<svg width="2056pt" height="250pt"
 viewBox="0.00 0.00 2056.00 249.80" xmlns="http://www.w3.org/2000/svg" xmlns:xlink="http://www.w3.org/1999/xlink">
<g id="graph0" class="graph" transform="scale(1 1) rotate(0) translate(4 245.8)">
<title>dependencies</title>
<polygon fill="white" stroke="transparent" points="-4,4 -4,-245.8 2052,-245.8 2052,4 -4,4"/>
<text text-anchor="middle" x="1024" y="-8.2" font-family="sans-serif" font-size="14.00">dependencies</text>
<g id="clust1" class="cluster">
<title>cluster_AppModule</title>
<polygon fill="none" stroke="black" stroke-dasharray="1,5" points="1000,-32.8 1000,-233.8 1742,-233.8 1742,-32.8 1000,-32.8"/>
</g>
<g id="clust3" class="cluster">
<title>cluster_AppModule_imports</title>
<polygon fill="none" stroke="black" points="1146,-40.8 1146,-168.8 1722,-168.8 1722,-40.8 1146,-40.8"/>
</g>
<g id="clust6" class="cluster">
<title>cluster_AppModule_providers</title>
<polygon fill="none" stroke="black" points="1008,-116.8 1008,-168.8 1138,-168.8 1138,-116.8 1008,-116.8"/>
</g>
<g id="clust7" class="cluster">
<title>cluster_AuthModule</title>
<polygon fill="none" stroke="black" stroke-dasharray="1,5" points="8,-32.8 8,-100.8 290,-100.8 290,-32.8 8,-32.8"/>
</g>
<g id="clust12" class="cluster">
<title>cluster_AuthModule_providers</title>
<polygon fill="none" stroke="black" points="16,-40.8 16,-92.8 282,-92.8 282,-40.8 16,-40.8"/>
</g>
<g id="clust13" class="cluster">
<title>cluster_GenerosModule</title>
<polygon fill="none" stroke="black" stroke-dasharray="1,5" points="298,-32.8 298,-100.8 474,-100.8 474,-32.8 298,-32.8"/>
</g>
<g id="clust18" class="cluster">
<title>cluster_GenerosModule_providers</title>
<polygon fill="none" stroke="black" points="306,-40.8 306,-92.8 466,-92.8 466,-40.8 306,-40.8"/>
</g>
<g id="clust19" class="cluster">
<title>cluster_JogosModule</title>
<polygon fill="none" stroke="black" stroke-dasharray="1,5" points="482,-32.8 482,-100.8 638,-100.8 638,-32.8 482,-32.8"/>
</g>
<g id="clust24" class="cluster">
<title>cluster_JogosModule_providers</title>
<polygon fill="none" stroke="black" points="490,-40.8 490,-92.8 630,-92.8 630,-40.8 490,-40.8"/>
</g>
<g id="clust25" class="cluster">
<title>cluster_PerfisModule</title>
<polygon fill="none" stroke="black" stroke-dasharray="1,5" points="646,-32.8 646,-100.8 804,-100.8 804,-32.8 646,-32.8"/>
</g>
<g id="clust30" class="cluster">
<title>cluster_PerfisModule_providers</title>
<polygon fill="none" stroke="black" points="654,-40.8 654,-92.8 796,-92.8 796,-40.8 654,-40.8"/>
</g>
<g id="clust31" class="cluster">
<title>cluster_PrismaModule</title>
<polygon fill="none" stroke="black" stroke-dasharray="1,5" points="1750,-108.8 1750,-176.8 2040,-176.8 2040,-108.8 1750,-108.8"/>
</g>
<g id="clust34" class="cluster">
<title>cluster_PrismaModule_exports</title>
<polygon fill="none" stroke="black" points="1916,-116.8 1916,-168.8 2032,-168.8 2032,-116.8 1916,-116.8"/>
</g>
<g id="clust36" class="cluster">
<title>cluster_PrismaModule_providers</title>
<polygon fill="none" stroke="black" points="1758,-116.8 1758,-168.8 1908,-168.8 1908,-116.8 1758,-116.8"/>
</g>
<g id="clust37" class="cluster">
<title>cluster_UsuariosModule</title>
<polygon fill="none" stroke="black" stroke-dasharray="1,5" points="812,-32.8 812,-100.8 992,-100.8 992,-32.8 812,-32.8"/>
</g>
<g id="clust42" class="cluster">
<title>cluster_UsuariosModule_providers</title>
<polygon fill="none" stroke="black" points="820,-40.8 820,-92.8 984,-92.8 984,-40.8 820,-40.8"/>
</g>
<!-- AuthModule -->
<g id="node1" class="node">
<title>AuthModule</title>
<polygon fill="#8dd3c7" stroke="black" points="1241.55,-160.8 1238.55,-164.8 1217.55,-164.8 1214.55,-160.8 1154.45,-160.8 1154.45,-124.8 1241.55,-124.8 1241.55,-160.8"/>
<text text-anchor="middle" x="1198" y="-138.6" font-family="Times,serif" font-size="14.00">AuthModule</text>
</g>
<!-- AppModule -->
<g id="node7" class="node">
<title>AppModule</title>
<polygon fill="#8dd3c7" stroke="black" points="1471.66,-225.8 1468.66,-229.8 1447.66,-229.8 1444.66,-225.8 1388.34,-225.8 1388.34,-189.8 1471.66,-189.8 1471.66,-225.8"/>
<text text-anchor="middle" x="1430" y="-203.6" font-family="Times,serif" font-size="14.00">AppModule</text>
</g>
<!-- AuthModule&#45;&gt;AppModule -->
<g id="edge1" class="edge">
<title>AuthModule&#45;&gt;AppModule</title>
<path fill="none" stroke="black" d="M1198,-160.91C1198,-180.14 1198,-207.8 1198,-207.8 1198,-207.8 1378.26,-207.8 1378.26,-207.8"/>
<polygon fill="black" stroke="black" points="1378.26,-211.3 1388.26,-207.8 1378.26,-204.3 1378.26,-211.3"/>
</g>
<!-- GenerosModule -->
<g id="node2" class="node">
<title>GenerosModule</title>
<polygon fill="#8dd3c7" stroke="black" points="1366.2,-160.8 1363.2,-164.8 1342.2,-164.8 1339.2,-160.8 1259.8,-160.8 1259.8,-124.8 1366.2,-124.8 1366.2,-160.8"/>
<text text-anchor="middle" x="1313" y="-138.6" font-family="Times,serif" font-size="14.00">GenerosModule</text>
</g>
<!-- GenerosModule&#45;&gt;AppModule -->
<g id="edge2" class="edge">
<title>GenerosModule&#45;&gt;AppModule</title>
<path fill="none" stroke="black" d="M1313,-160.83C1313,-177.2 1313,-198.8 1313,-198.8 1313,-198.8 1378.09,-198.8 1378.09,-198.8"/>
<polygon fill="black" stroke="black" points="1378.09,-202.3 1388.09,-198.8 1378.09,-195.3 1378.09,-202.3"/>
</g>
<!-- JogosModule -->
<g id="node3" class="node">
<title>JogosModule</title>
<polygon fill="#8dd3c7" stroke="black" points="1475.95,-160.8 1472.95,-164.8 1451.95,-164.8 1448.95,-160.8 1384.05,-160.8 1384.05,-124.8 1475.95,-124.8 1475.95,-160.8"/>
<text text-anchor="middle" x="1430" y="-138.6" font-family="Times,serif" font-size="14.00">JogosModule</text>
</g>
<!-- JogosModule&#45;&gt;AppModule -->
<g id="edge3" class="edge">
<title>JogosModule&#45;&gt;AppModule</title>
<path fill="none" stroke="black" d="M1430,-160.91C1430,-160.91 1430,-179.79 1430,-179.79"/>
<polygon fill="black" stroke="black" points="1426.5,-179.79 1430,-189.79 1433.5,-179.79 1426.5,-179.79"/>
</g>
<!-- PerfisModule -->
<g id="node4" class="node">
<title>PerfisModule</title>
<polygon fill="#8dd3c7" stroke="black" points="1586.21,-160.8 1583.21,-164.8 1562.21,-164.8 1559.21,-160.8 1493.79,-160.8 1493.79,-124.8 1586.21,-124.8 1586.21,-160.8"/>
<text text-anchor="middle" x="1540" y="-138.6" font-family="Times,serif" font-size="14.00">PerfisModule</text>
</g>
<!-- PerfisModule&#45;&gt;AppModule -->
<g id="edge4" class="edge">
<title>PerfisModule&#45;&gt;AppModule</title>
<path fill="none" stroke="black" d="M1540,-160.83C1540,-177.2 1540,-198.8 1540,-198.8 1540,-198.8 1481.9,-198.8 1481.9,-198.8"/>
<polygon fill="black" stroke="black" points="1481.9,-195.3 1471.9,-198.8 1481.9,-202.3 1481.9,-195.3"/>
</g>
<!-- PrismaModule -->
<g id="node5" class="node">
<title>PrismaModule</title>
<polygon fill="#8dd3c7" stroke="black" points="1648.44,-84.8 1645.44,-88.8 1624.44,-88.8 1621.44,-84.8 1549.56,-84.8 1549.56,-48.8 1648.44,-48.8 1648.44,-84.8"/>
<text text-anchor="middle" x="1599" y="-62.6" font-family="Times,serif" font-size="14.00">PrismaModule</text>
</g>
<!-- PrismaModule&#45;&gt;AuthModule -->
<g id="edge8" class="edge">
<title>PrismaModule&#45;&gt;AuthModule</title>
<path fill="none" stroke="black" d="M1549.44,-57.8C1446.67,-57.8 1219.89,-57.8 1219.89,-57.8 1219.89,-57.8 1219.89,-114.77 1219.89,-114.77"/>
<polygon fill="black" stroke="black" points="1216.39,-114.77 1219.89,-124.77 1223.39,-114.77 1216.39,-114.77"/>
</g>
<!-- PrismaModule&#45;&gt;GenerosModule -->
<g id="edge11" class="edge">
<title>PrismaModule&#45;&gt;GenerosModule</title>
<path fill="none" stroke="black" d="M1549.48,-66.8C1471.95,-66.8 1330.7,-66.8 1330.7,-66.8 1330.7,-66.8 1330.7,-114.79 1330.7,-114.79"/>
<polygon fill="black" stroke="black" points="1327.2,-114.79 1330.7,-124.79 1334.2,-114.79 1327.2,-114.79"/>
</g>
<!-- PrismaModule&#45;&gt;JogosModule -->
<g id="edge13" class="edge">
<title>PrismaModule&#45;&gt;JogosModule</title>
<path fill="none" stroke="black" d="M1549.5,-75.8C1504.55,-75.8 1445.24,-75.8 1445.24,-75.8 1445.24,-75.8 1445.24,-114.49 1445.24,-114.49"/>
<polygon fill="black" stroke="black" points="1441.74,-114.49 1445.24,-124.49 1448.74,-114.49 1441.74,-114.49"/>
</g>
<!-- PrismaModule&#45;&gt;PerfisModule -->
<g id="edge15" class="edge">
<title>PrismaModule&#45;&gt;PerfisModule</title>
<path fill="none" stroke="black" d="M1567.94,-84.81C1567.94,-84.81 1567.94,-114.65 1567.94,-114.65"/>
<polygon fill="black" stroke="black" points="1564.44,-114.65 1567.94,-124.65 1571.44,-114.65 1564.44,-114.65"/>
</g>
<!-- UsuariosModule -->
<g id="node6" class="node">
<title>UsuariosModule</title>
<polygon fill="#8dd3c7" stroke="black" points="1713.82,-160.8 1710.82,-164.8 1689.82,-164.8 1686.82,-160.8 1604.18,-160.8 1604.18,-124.8 1713.82,-124.8 1713.82,-160.8"/>
<text text-anchor="middle" x="1659" y="-138.6" font-family="Times,serif" font-size="14.00">UsuariosModule</text>
</g>
<!-- PrismaModule&#45;&gt;UsuariosModule -->
<g id="edge19" class="edge">
<title>PrismaModule&#45;&gt;UsuariosModule</title>
<path fill="none" stroke="black" d="M1633.59,-84.81C1633.59,-84.81 1633.59,-114.65 1633.59,-114.65"/>
<polygon fill="black" stroke="black" points="1630.09,-114.65 1633.59,-124.65 1637.09,-114.65 1630.09,-114.65"/>
</g>
<!-- PrismaModule&#45;&gt;AppModule -->
<g id="edge5" class="edge">
<title>PrismaModule&#45;&gt;AppModule</title>
<path fill="none" stroke="black" d="M1595.22,-84.94C1595.22,-123.03 1595.22,-207.8 1595.22,-207.8 1595.22,-207.8 1481.69,-207.8 1481.69,-207.8"/>
<polygon fill="black" stroke="black" points="1481.69,-204.3 1471.69,-207.8 1481.69,-211.3 1481.69,-204.3"/>
</g>
<!-- PrismaService  -->
<g id="node14" class="node">
<title>PrismaService </title>
<polygon fill="#fb8072" stroke="black" points="2024.37,-160.8 1923.63,-160.8 1923.63,-124.8 2024.37,-124.8 2024.37,-160.8"/>
<text text-anchor="middle" x="1974" y="-138.6" font-family="Times,serif" font-size="14.00">PrismaService </text>
</g>
<!-- PrismaModule&#45;&gt;PrismaService  -->
<g id="edge17" class="edge">
<title>PrismaModule&#45;&gt;PrismaService </title>
<path fill="none" stroke="black" stroke-dasharray="5,2" d="M1648.41,-60.8C1750.24,-60.8 1974,-60.8 1974,-60.8 1974,-60.8 1974,-114.6 1974,-114.6"/>
<polygon fill="black" stroke="black" points="1970.5,-114.6 1974,-124.6 1977.5,-114.6 1970.5,-114.6"/>
</g>
<!-- UsuariosModule&#45;&gt;AppModule -->
<g id="edge6" class="edge">
<title>UsuariosModule&#45;&gt;AppModule</title>
<path fill="none" stroke="black" d="M1659,-161.09C1659,-183.01 1659,-216.8 1659,-216.8 1659,-216.8 1481.74,-216.8 1481.74,-216.8"/>
<polygon fill="black" stroke="black" points="1481.74,-213.3 1471.74,-216.8 1481.74,-220.3 1481.74,-213.3"/>
</g>
<!-- AppService -->
<g id="node8" class="node">
<title>AppService</title>
<ellipse fill="#fdb462" stroke="black" cx="1073" cy="-142.8" rx="56.75" ry="18"/>
<text text-anchor="middle" x="1073" y="-138.6" font-family="Times,serif" font-size="14.00">AppService</text>
</g>
<!-- AppService&#45;&gt;AppModule -->
<g id="edge7" class="edge">
<title>AppService&#45;&gt;AppModule</title>
<path fill="none" stroke="black" d="M1073,-161.09C1073,-183.01 1073,-216.8 1073,-216.8 1073,-216.8 1378,-216.8 1378,-216.8"/>
<polygon fill="black" stroke="black" points="1378,-220.3 1388,-216.8 1378,-213.3 1378,-220.3"/>
</g>
<!-- AuthService -->
<g id="node9" class="node">
<title>AuthService</title>
<ellipse fill="#fdb462" stroke="black" cx="215" cy="-66.8" rx="59.11" ry="18"/>
<text text-anchor="middle" x="215" y="-62.6" font-family="Times,serif" font-size="14.00">AuthService</text>
</g>
<!-- AuthService&#45;&gt;AuthModule -->
<g id="edge9" class="edge">
<title>AuthService&#45;&gt;AuthModule</title>
<path fill="none" stroke="black" d="M215,-84.84C215,-98.09 215,-113.8 215,-113.8 215,-113.8 1198,-113.8 1198,-113.8 1198,-113.8 1198,-114.88 1198,-114.88"/>
<polygon fill="black" stroke="black" points="1194.5,-114.6 1198,-124.6 1201.5,-114.6 1194.5,-114.6"/>
</g>
<!-- JwtStrategy -->
<g id="node10" class="node">
<title>JwtStrategy</title>
<ellipse fill="#fdb462" stroke="black" cx="81" cy="-66.8" rx="56.77" ry="18"/>
<text text-anchor="middle" x="81" y="-62.6" font-family="Times,serif" font-size="14.00">JwtStrategy</text>
</g>
<!-- JwtStrategy&#45;&gt;AuthModule -->
<g id="edge10" class="edge">
<title>JwtStrategy&#45;&gt;AuthModule</title>
<path fill="none" stroke="black" d="M81,-85.04C81,-100.37 81,-119.8 81,-119.8 81,-119.8 1176.11,-119.8 1176.11,-119.8 1176.11,-119.8 1176.11,-120.29 1176.11,-120.29"/>
<polygon fill="black" stroke="black" points="1172.61,-114.68 1176.11,-124.68 1179.61,-114.68 1172.61,-114.68"/>
</g>
<!-- GenerosService -->
<g id="node11" class="node">
<title>GenerosService</title>
<ellipse fill="#fdb462" stroke="black" cx="386" cy="-66.8" rx="72.34" ry="18"/>
<text text-anchor="middle" x="386" y="-62.6" font-family="Times,serif" font-size="14.00">GenerosService</text>
</g>
<!-- GenerosService&#45;&gt;GenerosModule -->
<g id="edge12" class="edge">
<title>GenerosService&#45;&gt;GenerosModule</title>
<path fill="none" stroke="black" d="M386,-84.9C386,-95.89 386,-107.8 386,-107.8 386,-107.8 1295.3,-107.8 1295.3,-107.8 1295.3,-107.8 1295.3,-114.48 1295.3,-114.48"/>
<polygon fill="black" stroke="black" points="1291.8,-114.48 1295.3,-124.48 1298.8,-114.48 1291.8,-114.48"/>
</g>
<!-- JogosService -->
<g id="node12" class="node">
<title>JogosService</title>
<ellipse fill="#fdb462" stroke="black" cx="560" cy="-66.8" rx="61.99" ry="18"/>
<text text-anchor="middle" x="560" y="-62.6" font-family="Times,serif" font-size="14.00">JogosService</text>
</g>
<!-- JogosService&#45;&gt;JogosModule -->
<g id="edge14" class="edge">
<title>JogosService&#45;&gt;JogosModule</title>
<path fill="none" stroke="black" d="M560,-84.8C560,-93.8 560,-102.8 560,-102.8 560,-102.8 1414.76,-102.8 1414.76,-102.8 1414.76,-102.8 1414.76,-114.67 1414.76,-114.67"/>
<polygon fill="black" stroke="black" points="1411.26,-114.67 1414.76,-124.67 1418.26,-114.67 1411.26,-114.67"/>
</g>
<!-- PerfisService -->
<g id="node13" class="node">
<title>PerfisService</title>
<ellipse fill="#fdb462" stroke="black" cx="725" cy="-66.8" rx="62.55" ry="18"/>
<text text-anchor="middle" x="725" y="-62.6" font-family="Times,serif" font-size="14.00">PerfisService</text>
</g>
<!-- PerfisService&#45;&gt;PerfisModule -->
<g id="edge16" class="edge">
<title>PerfisService&#45;&gt;PerfisModule</title>
<path fill="none" stroke="black" d="M725,-84.94C725,-91.26 725,-96.8 725,-96.8 725,-96.8 1521.84,-96.8 1521.84,-96.8 1521.84,-96.8 1521.84,-114.62 1521.84,-114.62"/>
<polygon fill="black" stroke="black" points="1518.34,-114.62 1521.84,-124.62 1525.34,-114.62 1518.34,-114.62"/>
</g>
<!-- PrismaService -->
<g id="node15" class="node">
<title>PrismaService</title>
<ellipse fill="#fdb462" stroke="black" cx="1833" cy="-142.8" rx="66.64" ry="18"/>
<text text-anchor="middle" x="1833" y="-138.6" font-family="Times,serif" font-size="14.00">PrismaService</text>
</g>
<!-- PrismaService&#45;&gt;PrismaModule -->
<g id="edge18" class="edge">
<title>PrismaService&#45;&gt;PrismaModule</title>
<path fill="none" stroke="black" d="M1833,-124.77C1833,-104.03 1833,-72.8 1833,-72.8 1833,-72.8 1658.34,-72.8 1658.34,-72.8"/>
<polygon fill="black" stroke="black" points="1658.34,-69.3 1648.34,-72.8 1658.34,-76.3 1658.34,-69.3"/>
</g>
<!-- UsuariosService -->
<g id="node16" class="node">
<title>UsuariosService</title>
<ellipse fill="#fdb462" stroke="black" cx="902" cy="-66.8" rx="74.15" ry="18"/>
<text text-anchor="middle" x="902" y="-62.6" font-family="Times,serif" font-size="14.00">UsuariosService</text>
</g>
<!-- UsuariosService&#45;&gt;UsuariosModule -->
<g id="edge20" class="edge">
<title>UsuariosService&#45;&gt;UsuariosModule</title>
<path fill="none" stroke="black" d="M902,-84.99C902,-88.34 902,-90.8 902,-90.8 902,-90.8 1618.97,-90.8 1618.97,-90.8 1618.97,-90.8 1618.97,-114.61 1618.97,-114.61"/>
<polygon fill="black" stroke="black" points="1615.47,-114.61 1618.97,-124.61 1622.47,-114.61 1615.47,-114.61"/>
</g>
</g>
</svg>
